<svg width="150" height="150" xmlns="http://www.w3.org/2000/svg" xmlns:svg="http://www.w3.org/2000/svg">
    <!-- Created with SVG-edit - https://github.com/SVG-Edit/svgedit-->
    <g class="layer">
        <title>Layer 1</title>
        <g id="svg_5">
            <path d="m99.04717,108.37527c20.4351,-1.46985 30.46022,-14.41212 30.68983,-33.9008c0.22961,-19.48867 -10.25474,-33.18524 -30.68983,-33.56001l0,-16.8652c32.14509,0.09369 45.92156,30.82585 45.92156,50.5956c0,19.76977 -18.06248,51.25147 -45.92156,50.5956l0,-16.8652z" fill="#ffffff" id="svg_1" stroke-width="0"/>
            <path d="m99.2504,88.90546l-41.50392,28.438l41.50392,28.438l0,-56.87601l0,0.00001z" fill="#ffffff" id="svg_3" stroke-width="0"/>
        </g>
        <g id="svg_6" transform="matrix(1 0 0 1 0 0)">
            <path d="m51.52375,41.29926c-20.67639,1.54741 -32.25685,14.44811 -32.43133,34.07661c-0.17447,19.6285 11.94986,33.55522 32.63173,33.86559l0.0501,16.98555c-32.53181,0.01115 -46.56519,-30.8951 -46.62392,-50.80592c-0.05873,-19.91084 18.12737,-51.67649 46.32331,-51.10738l0.0501,16.98555z" fill="#ffffff" id="svg_2" stroke-width="0"/>
            <path d="m51.17129,61.68329l41.91838,-28.77717l-42.08734,-28.50471l0.16896,57.28187l0,0.00001z" fill="#ffffff" id="svg_4" stroke-width="0"/>
        </g>
    </g>
</svg>